<?xml version="1.0" encoding="UTF-8" standalone="no"?>
<!-- Generator: Adobe Illustrator 23.0.3, SVG Export Plug-In . SVG Version: 6.00 Build 0)  -->

<svg
   version="1.1"
   id="Layer_1"
   x="0px"
   y="0px"
   viewBox="0 0 1024 1024"
   xml:space="preserve"
   width="1024"
   height="1024"
   xmlns="http://www.w3.org/2000/svg"
   xmlns:svg="http://www.w3.org/2000/svg"><defs
   id="defs10" />
<style
   type="text/css"
   id="style1">
	.st0{fill:#343C3E;}
</style>









<rect
   style="fill:#ffffff;fill-opacity:1;stroke-width:1.15654;stroke-linecap:round;stroke-linejoin:round"
   id="rect10"
   width="1024"
   height="1024"
   x="0"
   y="0" /><path
   class="st0"
   d="m 512,166.16608 c -71.77062,0 -122.03911,24.98896 -149.25577,46.97538 -15.98132,13.65675 -21.40528,22.85812 -36.99916,37.87086 -19.46814,18.88701 -37.09602,6.58624 -67.60579,34.19033 -59.46986,55.88616 -91.52934,135.88957 -91.52934,224.51322 0,190.80718 154.58288,345.39005 345.39006,345.39005 190.80718,0 345.39006,-154.67972 345.39006,-345.4869 C 857.39006,318.81183 702.71032,166.16608 512,166.16608 Z m -0.29057,647.29158 c -167.8522,0 -303.9355,-136.08329 -303.9355,-303.9355 0,-120.97369 73.12661,-204.85137 92.69161,-204.85137 13.26933,0 7.65166,29.25064 61.31012,58.59815 162.42825,83.10282 409.60588,37.87086 409.60588,238.46054 0,121.84541 -131.14362,211.72818 -259.67211,211.72818 z M 786.10372,418.38024 c -53.65847,-20.4367 -92.40104,-31.67205 -140.44184,-40.38913 -68.28379,-12.30077 -139.1827,-13.55989 -207.17591,-27.60408 -27.50723,-6.58624 -94.53189,-22.56755 -86.20224,-64.99067 7.55481,-35.54631 69.05865,-78.64743 159.23199,-78.64743 130.85305,0 242.3348,81.74684 285.24221,197.68399 0.96856,2.71198 1.06542,5.71453 0.19371,8.52337 -1.45284,4.35853 -6.39252,6.68309 -10.84792,5.42395 z"
   id="path10"
   style="stroke-width:0.968563" />
</svg>
